<?xml version="1.0" encoding="UTF-8"?>
<svg id="Layer_1" xmlns="http://www.w3.org/2000/svg" version="1.1" xmlns:xlink="http://www.w3.org/1999/xlink" viewBox="0 0 512 512">
  <!-- Generator: Adobe Illustrator 29.0.0, SVG Export Plug-In . SVG Version: 2.1.0 Build 186)  -->
  <defs>
    <style>
      .st0 {
        fill: #fff;
        stroke: #000;
        stroke-miterlimit: 10;
      }

      .st1 {
        fill: url(#Gradiente_sem_nome);
        fill-rule: evenodd;
      }
    </style>
    <linearGradient id="Gradiente_sem_nome" data-name="Gradiente sem nome" x1="434.2" y1="436.2" x2="77.8" y2="79.8" gradientTransform="translate(0 514) scale(1 -1)" gradientUnits="userSpaceOnUse">
      <stop offset="0" stop-color="#ef3e3d"/>
      <stop offset="1" stop-color="#ffc828"/>
    </linearGradient>
  </defs>
  <circle class="st0" cx="257.5" cy="257.5" r="249.5"/>
  <path class="st1" d="M256,4c69.6,0,132.6,28.2,178.2,73.8,45.6,45.6,73.8,108.6,73.8,178.2s-28.2,132.6-73.8,178.2c-45.6,45.6-108.6,73.8-178.2,73.8s-132.6-28.2-178.2-73.8S4,325.6,4,256,32.2,123.4,77.8,77.8,186.4,4,256,4ZM166.6,328.5l95.9,62.5c5.5,3.6,12.9,2,16.5-3.5,1.3-2,1.9-4.3,1.9-6.5h0v-250c0-6.6-5.4-12-12-12s-5.3.9-7.3,2.5l-95,62-2.5,1.6h-43.7c-6.6,0-12,5.4-12,12v117.8c0,6.6,5.4,12,12,12h43.7l2.5,1.6ZM326.9,313.2c15.8-15.8,23.7-36.5,23.7-57.2s-7.9-41.4-23.7-57.2c-4.7-4.7-12.3-4.7-17,0s-4.7,12.3,0,17c11.1,11.1,16.7,25.7,16.7,40.3s-5.6,29.1-16.7,40.3-4.7,12.3,0,17,12.3,4.7,17,0h0ZM370.1,336.8c22.3-22.3,33.5-51.6,33.5-80.8s-11.2-58.5-33.5-80.8c-4.7-4.7-12.3-4.7-17,0s-4.7,12.3,0,17c17.6,17.6,26.5,40.7,26.5,63.9s-8.8,46.2-26.5,63.9c-4.7,4.7-4.7,12.3,0,17s12.3,4.7,17,0Z"/>
</svg>